<svg xmlns="http://www.w3.org/2000/svg" width="18" height="22" viewBox="0 0 18 22">
    <path fill="#FFF" d="M14.725 19.987c-.051-.369-.115-.725-.204-1.056-.333-1.24-.882-2.394-1.636-3.413.127-.688.204-1.412.204-2.16 0-4.777-2.927-8.644-6.544-8.644C2.927 4.714 0 8.581 0 13.357 0 18.133 2.927 22 6.545 22c2.07 0 3.924-1.277 5.125-3.266 1.061.418 1.56.958 2.122 1.437.166.135.32.294.562.245.218-.037.371-.208.371-.393v-.036zm2.902-18.403c-.243-.05-.397.11-.563.245-.562.479-1.06 1.02-2.122 1.437C13.741 1.276 11.9 0 9.817 0 7.682 0 5.79 1.35 4.602 3.425c.626-.184 1.278-.282 1.943-.282 2.288 0 4.397 1.13 5.956 3.18 1.432 1.902 2.224 4.395 2.224 7.034 0 .356-.025.724-.051 1.08 1.048-1.534 1.687-3.572 1.687-5.794 0-.749-.076-1.473-.204-2.16.754-1.02 1.304-2.174 1.636-3.414.09-.331.153-.687.204-1.056.026-.196-.14-.38-.37-.43z"/>
</svg>
