<?xml version="1.0" encoding="UTF-8"?>
<svg width="218px" height="218px" viewBox="0 0 218 218" version="1.1" xmlns="http://www.w3.org/2000/svg" xmlns:xlink="http://www.w3.org/1999/xlink">
    <!-- Generator: Sketch 48.2 (47327) - http://www.bohemiancoding.com/sketch -->
    <title>Group</title>
    <desc>Created with Sketch.</desc>
    <defs>
        <filter x="-8.8%" y="-8.8%" width="117.5%" height="117.5%" filterUnits="objectBoundingBox" id="filter-1">
            <feOffset dx="0" dy="0" in="SourceAlpha" result="shadowOffsetOuter1"></feOffset>
            <feGaussianBlur stdDeviation="5" in="shadowOffsetOuter1" result="shadowBlurOuter1"></feGaussianBlur>
            <feColorMatrix values="0 0 0 0 0.493835034   0 0 0 0 0.493835034   0 0 0 0 0.493835034  0 0 0 0.5 0" type="matrix" in="shadowBlurOuter1" result="shadowMatrixOuter1"></feColorMatrix>
            <feMerge>
                <feMergeNode in="shadowMatrixOuter1"></feMergeNode>
                <feMergeNode in="SourceGraphic"></feMergeNode>
            </feMerge>
        </filter>
    </defs>
    <g id="HOME" stroke="none" stroke-width="1" fill="none" fill-rule="evenodd" transform="translate(-38.000000, -38.000000)">
        <g id="Group" filter="url(#filter-1)" transform="translate(50.000000, 50.000000)">
            <polygon id="Fill-1" stroke="#FFFFFF" stroke-width="4" points="0 194 194 194 194 0 0 0"></polygon>
            <polygon id="Fill-2" fill="#FFFFFF" points="46 137 51 137 51 114 46 114"></polygon>
            <g id="Group-31" transform="translate(19.000000, 112.000000)" fill="#FFFFFF">
                <path d="M97.2640715,19.8044311 C93.5243267,19.5092644 90.9204228,16.3885478 90.9204228,12.6721311 L90.9204228,12.6077311 C90.9204228,8.87163667 93.4946961,5.79922 97.2640715,5.53625333 L97.2640715,0.916447778 C90.5100835,1.20177556 85.6578432,6.37703111 85.6578432,12.6721311 L85.6578432,12.7392144 C85.6578432,19.0557811 90.479555,24.1818422 97.2640715,24.4367589 L97.2640715,19.8044311 Z" id="Fill-3"></path>
                <path d="M98.3706408,0.911886111 L98.3706408,5.53974167 C102.111283,5.83848611 104.713392,8.95651944 104.713392,12.6720417 L104.713392,12.739125 C104.713392,16.4734306 102.139118,19.5485306 98.3706408,19.8088139 L98.3706408,24.4321972 C105.122833,24.145975 109.976869,18.969825 109.976869,12.6720417 L109.976869,12.6076417 C109.976869,6.29286389 105.154259,1.16590833 98.3706408,0.911886111" id="Fill-5"></path>
                <path d="M21.6538853,4.01274611 C19.2834348,2.00650722 16.8115219,0.904551667 12.7386571,0.891135 L12.7386571,5.52077944 C15.2375069,5.57176278 16.7738102,6.40359611 18.4825099,7.82307944 L21.6538853,4.01274611 Z" id="Fill-7"></path>
                <path d="M11.6323571,19.7939661 C8.24189459,19.2411994 5.9316033,16.4040217 5.9316033,12.6723994 L5.9316033,12.6079994 C5.9316033,9.04542722 8.39363934,6.04188278 11.6323571,5.57856056 L11.6323571,0.937288333 C5.24111982,1.43638833 0.669921622,6.52041056 0.669921622,12.6723994 L0.669921622,12.7385883 C0.669921622,19.135655 5.09117087,23.9397161 11.6323571,24.4119828 L11.6323571,19.7939661 Z" id="Fill-9"></path>
                <path d="M12.5337568,10.9473739 L12.5337568,15.2782739 L17.6005946,15.2782739 L17.6005946,18.5322628 C16.3255796,19.4454906 14.6923033,19.9007628 12.8614895,19.9007628 C12.8201862,19.9007628 12.7806787,19.8945017 12.7393754,19.8945017 L12.7393754,24.4570628 C16.90203,24.4481183 20.1254835,22.8247017 22.4698949,20.8461906 L22.4698949,10.9473739 L12.5337568,10.9473739 Z" id="Fill-11"></path>
                <polygon id="Fill-13" points="43.4709186 19.5109639 43.4709186 1.27681944 38.437303 1.27681944 38.437303 24.0681583 43.4727144 24.0681583 43.4727144 19.5109639"></polygon>
                <polygon id="Fill-15" points="44.5788348 24.0677111 54.8768258 24.0677111 54.8768258 19.5105167 44.5788348 19.5105167"></polygon>
                <polygon id="Fill-17" points="119.456336 5.80431833 119.456336 1.27664056 114.405661 1.27664056 114.405661 24.0679794 119.438378 24.0679794 119.438378 16.7755739 119.456336 16.7755739 119.456336 12.346285 119.438378 12.346285 119.438378 5.80431833"></polygon>
                <path d="M128.59146,15.9279089 C131.499751,14.85547 133.493982,12.5433311 133.493982,8.86358667 L133.493982,8.79739778 C133.493982,4.10961444 130.257958,1.27690889 124.864286,1.27690889 L120.562457,1.27690889 L120.562457,5.80458667 L124.441376,5.80458667 C126.889943,5.80458667 128.393922,6.91012 128.393922,9.05857556 L128.393922,9.12565889 C128.393922,11.0442422 126.987814,12.3465533 124.538349,12.3465533 L120.562457,12.3465533 L120.562457,16.7749478 L123.394427,16.7749478 L128.296949,24.0682478 L134.179976,24.0682478 L128.59146,15.9279089 Z" id="Fill-18"></path>
                <polygon id="Fill-19" points="144.240114 14.8227333 153.930228 14.8227333 153.930228 10.3612444 144.240114 10.3612444"></polygon>
                <polygon id="Fill-20" points="138.141592 24.0677111 143.133904 24.0677111 143.133904 1.27726667 138.141592 1.27726667"></polygon>
                <polygon id="Fill-21" points="144.239216 5.73696667 155.399189 5.73696667 155.399189 1.27726667 144.239216 1.27726667"></polygon>
                <polygon id="Fill-22" points="144.240114 24.0677111 155.564402 24.0677111 155.564402 19.6080111 144.240114 19.6080111"></polygon>
                <polygon id="Fill-23" points="58.2809363 1.27699833 58.2809363 24.0674428 63.2166811 24.0674428 63.2166811 9.28674833 63.2274559 9.30195389 63.2274559 1.27699833"></polygon>
                <polygon id="Fill-24" points="76.1599691 24.06789 81.1594646 24.06789 81.1594646 1.27744556 76.1411132 1.27744556 76.1411132 9.21653444 76.1599691 9.18970111"></polygon>
                <polygon id="Fill-25" points="75.0349928 2.40122556 69.721233 10.9154422 64.3329477 2.28137 64.3329477 10.9735811 69.5910378 18.9269811 69.721233 18.9269811 75.0349928 10.8921867"></polygon>
                <path d="M12.380306,34.3697433 L6.60861832,34.3697433 L6.60861832,44.3749989 L12.2501108,44.3749989 C16.0320568,44.3749989 18.5111529,42.3616044 18.5111529,39.3401711 C18.5111529,36.0593489 16.065279,34.3697433 12.380306,34.3697433 M12.1522399,46.7139711 L6.60861832,46.7139711 L6.60861832,54.7371378 L4.03254925,54.7371378 L4.03254925,31.9994656 L12.5760477,31.9994656 C17.7281859,31.9994656 21.1195462,34.7275211 21.1195462,39.2426767 C21.1195462,44.18001 17.0107655,46.7139711 12.1522399,46.7139711" id="Fill-26"></path>
                <polygon id="Fill-27" points="24.8386393 31.9991078 27.4147084 31.9991078 27.4147084 52.3656078 40.2627294 52.3656078 40.2627294 54.73678 24.8386393 54.73678"></polygon>
                <path d="M54.9708357,34.8248367 L49.7531511,46.4213089 L60.1552982,46.4213089 L54.9708357,34.8248367 Z M66.612082,54.7369589 L63.8402712,54.7369589 L61.1654333,48.7271867 L48.742118,48.7271867 L46.0367517,54.7369589 L43.3942381,54.7369589 L53.7963853,31.8364978 L56.2099348,31.8364978 L66.612082,54.7369589 Z" id="Fill-28"></path>
                <path d="M79.5595003,55.1262211 C72.9725213,55.1262211 68.1139958,49.9616989 68.1139958,43.4009489 C68.1139958,36.9037044 72.940197,31.6094878 79.6564733,31.6094878 C83.7984763,31.6094878 86.2757766,33.07101 88.558233,35.2140989 L86.7983532,37.0986933 C84.874158,35.2802878 82.7218967,33.9797656 79.6241489,33.9797656 C74.5698817,33.9797656 70.7870378,38.0405433 70.7870378,43.33476 C70.7870378,48.6298711 74.602206,52.7559433 79.6241489,52.7559433 C82.7551189,52.7559433 84.8095093,51.55381 86.993197,49.4751211 L88.6893261,51.1307378 C86.3089988,53.5350044 83.6997075,55.1262211 79.5595003,55.1262211" id="Fill-29"></path>
                <polygon id="Fill-30" points="110.017005 34.3373644 96.0933024 34.3373644 96.0933024 42.1011422 108.54984 42.1011422 108.54984 44.4401144 96.0933024 44.4401144 96.0933024 52.3979867 110.180423 52.3979867 110.180423 54.7369589 93.5181312 54.7369589 93.5181312 31.9992867 110.017005 31.9992867"></polygon>
            </g>
        </g>
    </g>
</svg>