<?xml version="1.0" encoding="UTF-8"?>
<svg width="87px" height="31px" viewBox="0 0 87 31" version="1.1" xmlns="http://www.w3.org/2000/svg" xmlns:xlink="http://www.w3.org/1999/xlink">
    <!-- Generator: Sketch 48.2 (47327) - http://www.bohemiancoding.com/sketch -->
    <title>Group 3</title>
    <desc>Created with Sketch.</desc>
    <defs></defs>
    <g id="iPhone-8" stroke="none" stroke-width="1" fill="none" fill-rule="evenodd" transform="translate(-29.000000, -33.000000)">
        <g id="Group-3" transform="translate(29.000000, 33.000000)" fill="#FFFFFF">
            <polygon id="Fill-2" points="15.1770833 13.4987778 17.9523368 13.4987778 17.9523368 0.882638889 15.1770833 0.882638889"></polygon>
            <path d="M53.9584407,10.8555283 C51.8961872,10.6921325 50.4602844,8.96459292 50.4602844,6.90729083 L50.4602844,6.87164083 C50.4602844,4.80344569 51.8798476,3.10264361 53.9584407,2.95707278 L53.9584407,0.399680417 C50.234006,0.557629722 47.5582754,3.42250333 47.5582754,6.90729083 L47.5582754,6.94442625 C47.5582754,10.4410971 50.2171712,13.2787381 53.9584407,13.4198526 L53.9584407,10.8555283 Z" id="Fill-3"></path>
            <path d="M54.5686499,0.397155208 L54.5686499,2.95900382 C56.6313985,3.12438021 58.066311,4.85043437 58.066311,6.90724132 L58.066311,6.94437674 C58.066311,9.0115816 56.6467478,10.7138691 54.5686499,10.8579545 L54.5686499,13.4173274 C58.2920943,13.258883 60.9688151,10.3935142 60.9688151,6.90724132 L60.9688151,6.87159132 C60.9688151,3.37591076 58.3094242,0.537774653 54.5686499,0.397155208" id="Fill-5"></path>
            <path d="M12.2637851,2.11370271 C10.9566185,1.00310618 9.59350111,0.393095069 7.34755111,0.385667986 L7.34755111,2.94850688 C8.72552264,2.97672979 9.57270528,3.43720896 10.5149546,4.22299438 L12.2637851,2.11370271 Z" id="Fill-7"></path>
            <path d="M6.73749049,10.8497352 C4.86784604,10.5437394 3.59385368,8.97315882 3.59385368,6.90743938 L3.59385368,6.87178938 C3.59385368,4.89965118 4.95152451,3.23697479 6.73749049,2.98049285 L6.73749049,0.411217153 C3.21309188,0.687504653 0.692339792,3.5018741 0.692339792,6.90743938 L0.692339792,6.94407965 C0.692339792,10.485313 3.13040368,13.144704 6.73749049,13.4061373 L6.73749049,10.8497352 Z" id="Fill-9"></path>
            <path d="M7.23456042,5.95251451 L7.23456042,8.34997701 L10.0286292,8.34997701 L10.0286292,10.1512923 C9.32553194,10.6568291 8.42487431,10.9088548 7.41528611,10.9088548 C7.39250972,10.9088548 7.37072361,10.9053888 7.34794722,10.9053888 L7.34794722,13.4310923 C9.64341111,13.4261409 11.4209597,12.5274638 12.7137674,11.4322166 L12.7137674,5.95251451 L7.23456042,5.95251451 Z" id="Fill-11"></path>
            <polygon id="Fill-13" points="24.2946203 10.6930733 24.2946203 0.599171875 21.5188717 0.599171875 21.5188717 13.2158059 24.2956106 13.2158059 24.2956106 10.6930733"></polygon>
            <polygon id="Fill-15" points="24.9055722 13.2155583 30.5843201 13.2155583 30.5843201 10.6928257 24.9055722 10.6928257"></polygon>
            <polygon id="Fill-17" points="66.1961944 3.1054659 66.1961944 0.599072847 63.4110382 0.599072847 63.4110382 13.2157069 66.1862917 13.2157069 66.1862917 9.17883951 66.1961944 9.17883951 66.1961944 6.72691174 66.1862917 6.72691174 66.1862917 3.1054659"></polygon>
            <path d="M71.233688,8.70959639 C72.8374428,8.11592486 73.9371463,6.83599083 73.9371463,4.79898944 L73.9371463,4.76234917 C73.9371463,2.16732625 72.1526658,0.599221389 69.1783665,0.599221389 L66.806156,0.599221389 L66.806156,3.10561444 L68.945156,3.10561444 C70.2953998,3.10561444 71.1247574,3.71760611 71.1247574,4.90692972 L71.1247574,4.94406514 C71.1247574,6.00613806 70.3493699,6.72706028 68.998631,6.72706028 L66.806156,6.72706028 L66.806156,9.17849292 L68.3678241,9.17849292 L71.0712824,13.2158554 L74.3154324,13.2158554 L71.233688,8.70959639 Z" id="Fill-18"></path>
            <polygon id="Fill-19" points="79.8630181 8.09780278 85.2065569 8.09780278 85.2065569 5.62805 79.8630181 5.62805"></polygon>
            <polygon id="Fill-20" points="76.5000347 13.2155583 79.2530069 13.2155583 79.2530069 0.599419444 76.5000347 0.599419444"></polygon>
            <polygon id="Fill-21" points="79.8625229 3.06818194 86.0166042 3.06818194 86.0166042 0.599419444 79.8625229 0.599419444"></polygon>
            <polygon id="Fill-22" points="79.8630181 13.2155583 86.1077097 13.2155583 86.1077097 10.7467958 79.8630181 10.7467958"></polygon>
            <polygon id="Fill-23" points="32.4614907 0.599270903 32.4614907 13.2154098 35.1832692 13.2154098 35.1832692 5.03323965 35.1892108 5.04165701 35.1892108 0.599270903"></polygon>
            <polygon id="Fill-24" points="42.3207458 13.2156574 45.0776791 13.2156574 45.0776791 0.599518472 42.3103478 0.599518472 42.3103478 4.99437125 42.3207458 4.97951708"></polygon>
            <polygon id="Fill-25" points="41.7003863 1.22161097 38.7701543 5.93483806 35.7988258 1.15526236 35.7988258 5.96702208 38.6983592 10.3697971 38.7701543 10.3697971 41.7003863 5.92196444"></polygon>
            <path d="M7.14994118,18.918469 L3.9671884,18.918469 L3.9671884,24.4570926 L7.07814604,24.4570926 C9.16367104,24.4570926 10.5307495,23.342535 10.5307495,21.6699558 C10.5307495,19.8537864 9.18199118,18.918469 7.14994118,18.918469 M7.0241759,25.7518808 L3.9671884,25.7518808 L3.9671884,30.1932767 L2.54663493,30.1932767 L2.54663493,17.606351 L7.25788146,17.606351 C10.0989884,17.606351 11.969128,19.1165246 11.969128,21.6159857 C11.969128,24.3491524 9.70337243,25.7518808 7.0241759,25.7518808" id="Fill-26"></path>
            <polygon id="Fill-27" points="14.0199933 17.6061529 15.4405467 17.6061529 15.4405467 28.8804654 22.5254891 28.8804654 22.5254891 30.1930786 14.0199933 30.1930786"></polygon>
            <path d="M30.6361612,19.1703957 L27.7589091,25.5898714 L33.4950931,25.5898714 L30.6361612,19.1703957 Z M37.0556369,30.1931776 L35.5271431,30.1931776 L34.0521244,26.8663394 L27.2013827,26.8663394 L25.7095292,30.1931776 L24.2523355,30.1931776 L29.9885195,17.5161367 L31.3194528,17.5161367 L37.0556369,30.1931776 Z" id="Fill-28"></path>
            <path d="M44.1953911,30.4086621 C40.5630522,30.4086621 37.8838557,27.5497301 37.8838557,23.9178864 C37.8838557,20.3211975 40.5452272,17.3904704 44.2488661,17.3904704 C46.5329418,17.3904704 47.89903,18.1995274 49.1576731,19.3858801 L48.1872008,20.4291378 C47.1261182,19.4225204 45.9392703,18.7025885 44.2310411,18.7025885 C41.4439043,18.7025885 39.3578842,20.950519 39.3578842,23.8812461 C39.3578842,26.8124683 41.4617293,29.096544 44.2310411,29.096544 C45.9575904,29.096544 47.0904682,28.4310774 48.294646,27.2803746 L49.2299633,28.1968767 C47.9173501,29.52781 46.4784765,30.4086621 44.1953911,30.4086621" id="Fill-29"></path>
            <polygon id="Fill-30" points="60.9909478 18.900545 53.3128291 18.900545 53.3128291 23.1983506 60.1818909 23.1983506 60.1818909 24.4931387 53.3128291 24.4931387 53.3128291 28.8983894 61.0810631 28.8983894 61.0810631 30.1931776 51.8927708 30.1931776 51.8927708 17.6062519 60.9909478 17.6062519"></polygon>
        </g>
    </g>
</svg>