<?xml version="1.0" encoding="UTF-8"?>
<svg width="80px" height="93px" viewBox="0 0 80 93" version="1.1" xmlns="http://www.w3.org/2000/svg" xmlns:xlink="http://www.w3.org/1999/xlink">
    <!-- Generator: Sketch 48.2 (47327) - http://www.bohemiancoding.com/sketch -->
    <title>Group 9 Copy 3</title>
    <desc>Created with Sketch.</desc>
    <defs></defs>
    <g id="DISCOVER---LOCATION" stroke="none" stroke-width="1" fill="none" fill-rule="evenodd" transform="translate(-583.000000, -3123.000000)">
        <g id="Group-8" transform="translate(0.000000, 2764.000000)">
            <g id="Group-9-Copy-3" transform="translate(583.000000, 359.000000)">
                <g id="Group">
                    <g id="Group-3">
                        <g id="Group-2" fill="#FFFFFF">
                            <polygon id="Fill-1" points="0 80 80 80 80 0 0 0"></polygon>
                            <polygon id="Path-3" points="68 79.1057174 68 92.7192264 53.628561 78.3477875"></polygon>
                        </g>
                        <g id="Group-31" transform="translate(8.000000, 46.000000)" fill="#263746">
                            <path d="M40.5266964,8.13396278 C38.9684695,8.01273361 37.8835095,6.73101069 37.8835095,5.20462528 L37.8835095,5.17817528 C37.8835095,3.64370792 38.9561234,2.3818225 40.5266964,2.27381833 L40.5266964,0.376398194 C37.7125348,0.493586389 35.690768,2.61913778 35.690768,5.20462528 L35.690768,5.23217736 C35.690768,7.82648153 37.6998146,9.93182806 40.5266964,10.036526 L40.5266964,8.13396278 Z" id="Fill-3"></path>
                            <path d="M40.987767,0.374524653 L40.987767,2.27525104 C42.5463681,2.39794965 43.6305798,3.67857049 43.6305798,5.20458854 L43.6305798,5.23214063 C43.6305798,6.76587326 42.557966,8.02886076 40.987767,8.13576285 L40.987767,10.0346524 C43.8011804,9.91709688 45.8236954,7.79117813 45.8236954,5.20458854 L45.8236954,5.17813854 C45.8236954,2.5845691 43.8142748,0.478855208 40.987767,0.374524653" id="Fill-5"></path>
                            <path d="M9.0224522,1.64809215 C8.03476451,0.824101181 7.0048008,0.371512292 5.30777377,0.366001875 L5.30777377,2.26746299 C6.34896121,2.28840257 6.98908759,2.6300484 7.7010458,3.21305049 L9.0224522,1.64809215 Z" id="Fill-7"></path>
                            <path d="M4.84681544,8.12966465 C3.43412275,7.90263549 2.47150138,6.73736604 2.47150138,5.20473549 L2.47150138,5.17828549 C2.47150138,3.71508618 3.49734972,2.48148757 4.84681544,2.29119451 L4.84681544,0.384957708 C2.18379992,0.589945208 0.279134009,2.67802576 0.279134009,5.20473549 L0.279134009,5.23192021 C0.279134009,7.85928688 2.1213212,9.8323834 4.84681544,10.0263501 L4.84681544,8.12966465 Z" id="Fill-9"></path>
                            <path d="M5.22239865,4.49624285 L5.22239865,6.27500535 L7.33358108,6.27500535 L7.33358108,7.61146507 C6.80232482,7.98654076 6.12179304,8.17352757 5.35895395,8.17352757 C5.34174424,8.17352757 5.32528278,8.17095604 5.30807307,8.17095604 L5.30807307,10.0448651 C7.04251251,10.0411915 8.38561812,9.37443104 9.36245621,8.56182826 L9.36245621,4.49624285 L5.22239865,4.49624285 Z" id="Fill-11"></path>
                            <polygon id="Fill-13" points="18.1128828 8.0134316 18.1128828 0.524407986 16.0155429 0.524407986 16.0155429 9.88513646 18.113631 9.88513646 18.113631 8.0134316"></polygon>
                            <polygon id="Fill-15" points="18.5745145 9.88495278 22.8653441 9.88495278 22.8653441 8.01324792 18.5745145 8.01324792"></polygon>
                            <polygon id="Fill-17" points="49.7734735 2.38391646 49.7734735 0.524334514 47.6690253 0.524334514 47.6690253 9.88506299 49.765991 9.88506299 49.765991 6.88996785 49.7734735 6.88996785 49.7734735 5.07079563 49.765991 5.07079563 49.765991 2.38391646"></polygon>
                            <path d="M53.5797749,6.54181972 C54.7915629,6.10135375 55.6224926,5.15172528 55.6224926,3.64040167 L55.6224926,3.61321694 C55.6224926,1.68787736 54.2741493,0.524444722 52.0267857,0.524444722 L50.234357,0.524444722 L50.234357,2.38402667 L51.8505732,2.38402667 C52.8708097,2.38402667 53.4974676,2.838085 53.4974676,3.72048639 L53.4974676,3.74803847 C53.4974676,4.53602806 52.9115892,5.07090583 51.8909786,5.07090583 L50.234357,5.07090583 L50.234357,6.88971069 L51.4143445,6.88971069 L53.4570622,9.88517319 L55.9083234,9.88517319 L53.5797749,6.54181972 Z" id="Fill-18"></path>
                            <polygon id="Fill-19" points="60.1000475 6.08790833 64.1375951 6.08790833 64.1375951 4.25551111 60.1000475 4.25551111"></polygon>
                            <polygon id="Fill-20" points="57.5589965 9.88495278 59.6391266 9.88495278 59.6391266 0.524591667 57.5589965 0.524591667"></polygon>
                            <polygon id="Fill-21" points="60.0996734 2.35625417 64.7496622 2.35625417 64.7496622 0.524591667 60.0996734 0.524591667"></polygon>
                            <polygon id="Fill-22" points="60.1000475 9.88495278 64.818501 9.88495278 64.818501 8.05329028 60.1000475 8.05329028"></polygon>
                            <polygon id="Fill-23" points="24.2837235 0.524481458 24.2837235 9.88484257 26.3402838 9.88484257 26.3402838 3.81420021 26.3447733 3.82044535 26.3447733 0.524481458"></polygon>
                            <polygon id="Fill-24" points="31.7333204 9.88502625 33.8164436 9.88502625 33.8164436 0.524665139 31.7254638 0.524665139 31.7254638 3.78536236 31.7333204 3.77434153"></polygon>
                            <polygon id="Fill-25" points="31.2645803 0.986217639 29.0505138 4.48312806 26.8053949 0.93699125 26.8053949 4.50700653 28.9962658 7.77358153 29.0505138 7.77358153 31.2645803 4.47357667"></polygon>
                            <path d="M5.15846084,14.1161446 L2.75359097,14.1161446 L2.75359097,18.225446 L5.10421284,18.225446 C6.68002365,18.225446 7.71298036,17.3985161 7.71298036,16.1575703 C7.71298036,14.8100897 6.69386624,14.1161446 5.15846084,14.1161446 M5.06343331,19.1860953 L2.75359097,19.1860953 L2.75359097,22.4813244 L1.68022885,22.4813244 L1.68022885,13.1426376 L5.24001989,13.1426376 C7.38674412,13.1426376 8.79981094,14.263089 8.79981094,16.1175279 C8.79981094,18.1453613 7.08781894,19.1860953 5.06343331,19.1860953" id="Fill-26"></path>
                            <polygon id="Fill-27" points="10.3494331 13.1424907 11.4227952 13.1424907 11.4227952 21.5073032 16.7761373 21.5073032 16.7761373 22.4811775 10.3494331 22.4811775"></polygon>
                            <path d="M22.9045149,14.3030579 L20.7304796,19.0658947 L25.0647076,19.0658947 L22.9045149,14.3030579 Z M27.7550342,22.481251 L26.600113,22.481251 L25.4855972,20.0129517 L20.3092158,20.0129517 L19.1819799,22.481251 L18.0809326,22.481251 L22.4151605,13.0757044 L23.4208062,13.0757044 L27.7550342,22.481251 Z" id="Fill-28"></path>
                            <path d="M33.1497918,22.6411265 C30.4052172,22.6411265 28.3808316,20.5199835 28.3808316,17.8253897 C28.3808316,15.1568786 30.3917487,12.9824682 33.1901972,12.9824682 C34.9160318,12.9824682 35.9482402,13.5827363 36.8992638,14.4629335 L36.1659805,15.2369633 C35.3642325,14.4901182 34.467457,13.9559751 33.1767287,13.9559751 C31.070784,13.9559751 29.4945991,15.6237946 29.4945991,17.798205 C29.4945991,19.9729828 31.0842525,21.6676196 33.1767287,21.6676196 C34.4812995,21.6676196 35.3372955,21.1738863 36.2471654,20.320139 L36.9538859,21.0001244 C35.9620828,21.9875911 34.8748781,22.6411265 33.1497918,22.6411265" id="Fill-29"></path>
                            <polygon id="Fill-30" points="45.8404188 14.1028461 40.038876 14.1028461 40.038876 17.2915406 45.2291 17.2915406 45.2291 18.2521899 40.038876 18.2521899 40.038876 21.5206017 45.9085094 21.5206017 45.9085094 22.481251 38.965888 22.481251 38.965888 13.1425642 45.8404188 13.1425642"></polygon>
                        </g>
                        <polygon id="Fill-2" fill="#263746" points="19 56 21 56 21 47 19 47"></polygon>
                    </g>
                </g>
            </g>
        </g>
    </g>
</svg>