<?xml version="1.0" encoding="UTF-8"?>
<svg width="102px" height="32px" viewBox="0 0 102 32" version="1.1" xmlns="http://www.w3.org/2000/svg" xmlns:xlink="http://www.w3.org/1999/xlink">
    <!-- Generator: Sketch 49 (51002) - http://www.bohemiancoding.com/sketch -->
    <title>Page 1</title>
    <desc>Created with Sketch.</desc>
    <defs>
        <polygon id="path-1" points="0.336655206 0.23889958 11.3502217 0.23889958 11.3502217 5.28427878 0.336655206 5.28427878 0.336655206 0.23889958"></polygon>
    </defs>
    <g id="HOME" stroke="none" stroke-width="1" fill="none" fill-rule="evenodd">
        <g id="BG-Residential-Menu" transform="translate(-1266.000000, -648.000000)">
            <g id="Group-7-Copy-15" transform="translate(-2.000000, 1.000000)">
                <g id="Page-1" transform="translate(1268.000000, 647.000000)">
                    <g id="Group-3" transform="translate(84.000000, 0.000000)">
                        <mask id="mask-2" fill="white">
                            <use xlink:href="#path-1"></use>
                        </mask>
                        <g id="Clip-2"></g>
                        <path d="M11.3469817,2.78432962 C11.4469493,4.17374559 9.22637149,5.28427878 5.69047851,5.28427878 C2.5600099,5.28427878 0.336655206,4.17374559 0.336655206,2.78432962 C0.336655206,1.34893298 2.65997756,0.23839979 5.89226507,0.23839979 C9.22637149,0.23839979 11.3469817,1.34893298 11.3469817,2.78432962" id="Fill-1" fill="#FFFFFF" mask="url(#mask-2)"></path>
                    </g>
                    <polygon id="Fill-4" fill="#FFFFFF" points="87 25 92 25 92 8 87 8"></polygon>
                    <path d="M61.2406751,25 L66.5287056,25 L66.5287056,15.0225082 C66.5287056,14.506736 66.6495303,13.9909639 66.889231,13.6120482 C67.7915189,11.9241512 70.4954593,10.5127601 73.9808629,10.5127601 C78.9687804,10.5127601 80.7109951,12.7518072 80.7109951,15.4368018 L80.7109951,25 L86,25 L86,15.091402 C86,9.37787514 79.7502436,8 75.7230775,8 C70.9163971,8 67.5518182,9.54917853 66.1087423,11.1328039 L65.9879175,11.1328039 L65.6878045,8.37891566 L61,8.37891566 C61.1802627,9.7558598 61.2406751,11.1681818 61.2406751,12.8886637 L61.2406751,25 Z" id="Fill-6" fill="#FFFFFF"></path>
                    <path d="M49.7230775,8 C44.9144483,8 41.5498694,9.5490937 40.1077679,11.1326324 L39.9879175,11.1326324 L39.6878045,8.37889491 L35,8.37889491 C35.1120552,9.23536499 35.1783139,10.1057992 35.2104689,11.0544329 C37.7731223,12.5206725 39.2132751,14.4188708 39.2132751,16.6075242 C39.2132751,18.9823668 37.685427,20.8544987 35.2406751,22.2639505 L35.2406751,25 L40.5277312,25 L40.5277312,15.0221237 C40.5277312,14.5063797 40.6485559,13.9906358 40.889231,13.6108099 C41.7895701,11.9239363 44.4954593,10.5126225 47.9808629,10.5126225 C52.9687804,10.5126225 54.7109951,12.751547 54.7109951,15.4354636 L54.7109951,25 L60,25 L60,15.0910136 C60,9.37686874 53.7492692,8 49.7230775,8" id="Fill-7" fill="#FFFFFF"></path>
                    <path d="M64.7919531,29.1475641 C64.7919531,29.0618969 64.7778709,28.9884679 64.7255658,28.9206872 C64.5133277,28.6297952 63.941995,28.3916216 63.0930427,28.3916216 C61.9785415,28.3916216 61.1808885,28.7954813 61.1808885,29.4318663 C61.1808885,29.9712874 61.8196144,30.4203342 63.0799665,30.4203342 C63.7961442,30.4203342 64.4459346,30.2264062 64.6984074,29.9091551 C64.7658005,29.8234879 64.7919531,29.7274653 64.7919531,29.6408567 L64.7919531,29.1475641 Z M66,28.0621323 C65.9728416,28.2607672 65.9456832,28.4819958 65.9456832,28.8171334 L65.9456832,30.4146858 C65.9456832,31.0454225 65.6539816,31.432337 65.0303437,31.6705107 C64.4056999,31.9209226 63.5044426,32 62.6947192,32 C61.9242246,32 61.0762783,31.9209226 60.5582565,31.7731231 L60.850964,31.3918569 C61.2754401,31.5057661 61.9383068,31.6083784 62.7349539,31.6083784 C63.9299246,31.6083784 64.8050293,31.3410214 64.8050293,30.6481525 L64.8050293,30.3412568 L64.7778709,30.3412568 C64.4207879,30.5963756 63.728751,30.800659 62.7349539,30.800659 C61.1426655,30.800659 60,30.2216992 60,29.4601083 C60,28.5281243 61.420285,28 62.8928751,28 C64.0083822,28 64.6189438,28.2494705 64.8975692,28.4763474 L64.9247276,28.4763474 L64.9780386,28.0621323 L66,28.0621323 Z" id="Fill-8" fill="#FFFFFF"></path>
                    <path d="M67.0495945,28.9826029 C67.0495945,28.6363332 67.0374298,28.3392439 67,28.0672466 L67.9507174,28.0672466 L67.9881472,28.643359 L68.0377417,28.643359 C68.3091079,28.2489127 68.963194,28 69.691204,28 C69.8147224,28 69.9017467,28.0060221 70,28.0190699 L70,28.5219137 C69.889582,28.5088658 69.7782283,28.5028438 69.6303805,28.5028438 C68.864005,28.5028438 68.3212726,28.7888926 68.1734248,29.1883573 C68.1481597,29.2606223 68.1238303,29.3449314 68.1238303,29.4352626 L68.1238303,31 L67.0495945,31 L67.0495945,28.9826029 Z" id="Fill-9" fill="#FFFFFF"></path>
                    <path d="M72.1298077,29.5058939 C72.1298077,30.1345776 72.9038462,30.6090373 73.9932692,30.6090373 C75.0605769,30.6090373 75.8596154,30.1404715 75.8596154,29.4941061 C75.8596154,29.0078585 75.3394231,28.3909627 74.0201923,28.3909627 C72.7009615,28.3909627 72.1298077,28.9607073 72.1298077,29.5058939 M77,29.4764244 C77,30.5383104 75.4278846,31 73.9442308,31 C72.2807692,31 71,30.4312377 71,29.5235756 C71,28.5628684 72.3451923,28 74.0442308,28 C75.8076923,28 77,28.5982318 77,29.4764244" id="Fill-10" fill="#FFFFFF"></path>
                    <path d="M82.9512509,30.1335341 C82.9512509,30.436747 82.9632082,30.7038153 83,30.9337349 L82.0516924,30.9337349 L81.9928256,30.4548193 L81.9679912,30.4548193 C81.6892936,30.6907631 81.0702723,31 80.0253863,31 C79.102833,31 78,30.7459839 78,29.7148594 L78,28 L79.066961,28 L79.066961,29.624498 C79.066961,30.1817269 79.406365,30.5582329 80.3785872,30.5582329 C81.0932671,30.5582329 81.5908756,30.3092369 81.7849522,30.0722892 C81.8465784,29.9939759 81.8833701,29.8975904 81.8833701,29.8002008 L81.8833701,28 L82.9512509,28 L82.9512509,30.1335341 Z" id="Fill-11" fill="#FFFFFF"></path>
                    <path d="M86.1818927,29.7198853 C86.1818927,29.7944551 86.2074791,29.8642447 86.2350336,29.9273423 C86.4426767,30.2791587 87.1295719,30.5219885 87.9473512,30.5219885 C89.1558143,30.5219885 89.8564868,30.083174 89.8564868,29.4426386 C89.8564868,28.8833652 89.195178,28.4034417 87.9867148,28.4034417 C87.2073151,28.4034417 86.4820403,28.6520076 86.2596359,29.0334608 C86.2212564,29.0975143 86.1818927,29.1711281 86.1818927,29.2409178 L86.1818927,29.7198853 Z M85.0531409,28.9760994 C85.0531409,28.6185468 85.0265704,28.3288719 85,28.0640535 L86.0273905,28.0640535 L86.0785632,28.543021 L86.1041496,28.543021 C86.5715926,28.2017208 87.3116287,28 88.337051,28 C89.8564868,28 91,28.5717017 91,29.4206501 C91,30.4235182 89.6222732,30.9196941 88.1422011,30.9196941 C87.3116287,30.9196941 86.5843858,30.7581262 86.2074791,30.4818356 L86.1818927,30.4818356 L86.1818927,32 L85.0531409,32 L85.0531409,28.9760994 Z" id="Fill-12" fill="#FFFFFF"></path>
                    <path d="M7.33868414,17.0357757 C7.33868414,20.8067254 12.367939,23.6523421 19.4596254,23.6523421 C26.3850632,23.6523421 31.5805666,20.8425011 31.5805666,16.9642243 C31.5805666,14.0480232 28.1995469,10.3476579 19.6249239,10.3476579 C11.0493508,10.3476579 7.33868414,13.7627847 7.33868414,17.0357757 M39,16.8578642 C39,23.2249678 28.7761918,26 19.1290283,26 C8.32857526,26 0,22.5848732 0,17.1421358 C0,11.3793511 8.74087156,8 19.7892724,8 C31.2499696,8 39,11.5930382 39,16.8578642" id="Fill-13" fill="#FFFFFF"></path>
                    <path d="M99.4994857,0 C98.1191113,0 97,1.12037037 97,2.50102881 C97,3.88065844 98.1191113,5 99.4994857,5 C100.87986,5 102,3.88065844 102,2.50102881 C102,1.12037037 100.87986,0 99.4994857,0 Z M100.095042,1.80967078 C100.095042,1.66049383 100.048755,1.54320988 99.9551533,1.45781893 C99.8615511,1.37345679 99.7350339,1.33127572 99.5786875,1.33127572 L98.8967291,1.33127572 L98.8967291,2.281893 L99.5786875,2.281893 C99.7350339,2.281893 99.8605225,2.23971193 99.9530961,2.15534979 C100.047727,2.06995885 100.095042,1.9537037 100.095042,1.80967078 Z M100.649455,3.95576132 L100.112528,3.95576132 L99.4727422,2.67798354 L98.8967291,2.67798354 L98.8967291,3.95576132 L98.4328328,3.95576132 L98.4328328,0.916666667 L99.6126311,0.916666667 C99.7998354,0.916666667 99.9644106,0.95473251 100.108414,1.02880658 C100.252417,1.10493827 100.362477,1.21090535 100.439621,1.34567901 C100.516766,1.47839506 100.555853,1.63271605 100.555853,1.80555556 C100.555853,2.01337449 100.501337,2.1872428 100.388192,2.3281893 C100.276075,2.46707819 100.131043,2.5617284 99.9510389,2.61213992 L100.649455,3.95576132 Z" id="Fill-14" fill="#FFFFFF"></path>
                </g>
            </g>
        </g>
    </g>
</svg>